<svg width="1966" height="2255" viewBox="0 0 1966 2255" fill="none" xmlns="http://www.w3.org/2000/svg">
<g filter="url(#filter0_ii_104_15)">
<path d="M1965.39 493.286C1956.94 1344.6 1814.39 1753.39 1086.91 2224.3C1023.95 2265.05 942.308 2265.05 879.35 2224.3C151.837 1753.39 8.92643 1344.6 0.419381 493.286C-0.698079 381.46 92.7672 294.096 203.889 281.511C501.838 247.767 681.645 121.406 907.526 17.1194C955.504 -5.03135 1010.76 -5.03233 1058.73 17.1228C1284.55 121.405 1464.08 247.759 1761.92 281.508C1873.04 294.099 1966.51 381.46 1965.39 493.286Z" fill="url(#paint0_linear_104_15)"/>
</g>
<defs>
<filter id="filter0_ii_104_15" x="0.409668" y="-49.4937" width="1965" height="2374.36" filterUnits="userSpaceOnUse" color-interpolation-filters="sRGB">
<feFlood flood-opacity="0" result="BackgroundImageFix"/>
<feBlend mode="normal" in="SourceGraphic" in2="BackgroundImageFix" result="shape"/>
<feColorMatrix in="SourceAlpha" type="matrix" values="0 0 0 0 0 0 0 0 0 0 0 0 0 0 0 0 0 0 127 0" result="hardAlpha"/>
<feOffset dy="-50"/>
<feGaussianBlur stdDeviation="35"/>
<feComposite in2="hardAlpha" operator="arithmetic" k2="-1" k3="1"/>
<feColorMatrix type="matrix" values="0 0 0 0 0.745833 0 0 0 0 0 0 0 0 0 0 0 0 0 1 0"/>
<feBlend mode="normal" in2="shape" result="effect1_innerShadow_104_15"/>
<feColorMatrix in="SourceAlpha" type="matrix" values="0 0 0 0 0 0 0 0 0 0 0 0 0 0 0 0 0 0 127 0" result="hardAlpha"/>
<feOffset dy="100"/>
<feGaussianBlur stdDeviation="35"/>
<feComposite in2="hardAlpha" operator="arithmetic" k2="-1" k3="1"/>
<feColorMatrix type="matrix" values="0 0 0 0 1 0 0 0 0 1 0 0 0 0 1 0 0 0 0.7 0"/>
<feBlend mode="normal" in2="effect1_innerShadow_104_15" result="effect2_innerShadow_104_15"/>
</filter>
<linearGradient id="paint0_linear_104_15" x1="982.905" y1="-16" x2="982.905" y2="2289.5" gradientUnits="userSpaceOnUse">
<stop stop-color="#FF2525"/>
<stop offset="0.9999" stop-color="#FF7A00"/>
<stop offset="1" stop-color="#FF2525"/>
</linearGradient>
</defs>
</svg>
