<svg width="1737" height="1957" viewBox="0 0 1737 1957" fill="none" xmlns="http://www.w3.org/2000/svg">
<g filter="url(#filter0_ii_1_28)">
<path d="M755.569 1140.56C755.617 1172.73 768.975 1203.44 792.474 1225.42L1540.26 1924.77C1632.57 2011.11 1777.01 1909.2 1726.61 1793.3L977.276 70.1654C926.873 -45.7377 753.826 -9.61177 754.018 116.774L755.569 1140.56Z" fill="url(#paint0_linear_1_28)"/>
<path d="M981.431 1140.56C981.383 1172.73 968.025 1203.44 944.526 1225.42L196.745 1924.77C104.432 2011.11 -40.0103 1909.2 10.3921 1793.3L759.724 70.1654C810.127 -45.7377 983.174 -9.61177 982.982 116.774L981.431 1140.56Z" fill="url(#paint1_linear_1_28)"/>
</g>
<defs>
<filter id="filter0_ii_1_28" x="0" y="-50" width="1737" height="2077" filterUnits="userSpaceOnUse" color-interpolation-filters="sRGB">
<feFlood flood-opacity="0" result="BackgroundImageFix"/>
<feBlend mode="normal" in="SourceGraphic" in2="BackgroundImageFix" result="shape"/>
<feColorMatrix in="SourceAlpha" type="matrix" values="0 0 0 0 0 0 0 0 0 0 0 0 0 0 0 0 0 0 127 0" result="hardAlpha"/>
<feOffset dy="100"/>
<feGaussianBlur stdDeviation="35"/>
<feComposite in2="hardAlpha" operator="arithmetic" k2="-1" k3="1"/>
<feColorMatrix type="matrix" values="0 0 0 0 1 0 0 0 0 1 0 0 0 0 1 0 0 0 0.7 0"/>
<feBlend mode="normal" in2="shape" result="effect1_innerShadow_1_28"/>
<feColorMatrix in="SourceAlpha" type="matrix" values="0 0 0 0 0 0 0 0 0 0 0 0 0 0 0 0 0 0 127 0" result="hardAlpha"/>
<feOffset dy="-50"/>
<feGaussianBlur stdDeviation="35"/>
<feComposite in2="hardAlpha" operator="arithmetic" k2="-1" k3="1"/>
<feColorMatrix type="matrix" values="0 0 0 0 0.733333 0 0 0 0 0 0 0 0 0 0 0 0 0 0.86 0"/>
<feBlend mode="normal" in2="effect1_innerShadow_1_28" result="effect2_innerShadow_1_28"/>
</filter>
<linearGradient id="paint0_linear_1_28" x1="868.5" y1="0" x2="868.5" y2="1957" gradientUnits="userSpaceOnUse">
<stop stop-color="#F00000"/>
<stop offset="1" stop-color="#FF9292"/>
</linearGradient>
<linearGradient id="paint1_linear_1_28" x1="868.5" y1="0" x2="868.5" y2="1957" gradientUnits="userSpaceOnUse">
<stop stop-color="#F00000"/>
<stop offset="1" stop-color="#FF9292"/>
</linearGradient>
</defs>
</svg>
